<?xml version="1.0" encoding="utf-8"?>
<!-- Generator: Adobe Illustrator 21.0.2, SVG Export Plug-In . SVG Version: 6.00 Build 0)  -->
<svg version="1.1" id="Livello_1" xmlns="http://www.w3.org/2000/svg" xmlns:xlink="http://www.w3.org/1999/xlink" x="0px" y="0px"
	 viewBox="0 0 147.7 28.9" style="enable-background:new 0 0 147.7 28.9;" xml:space="preserve">
<style type="text/css">
	.st0{fill:#5AB7B2;}
	.st1{fill:#FFFFFF;}
</style>
<g>
	<polygon class="st0" points="1.1,24.1 0,28.9 141.7,28.9 142.9,24.1 	"/>
	<g>
		<g>
			<g>
				<path class="st1" d="M18.5,11.5c0,0,1.7,0,1.3,1.5c-0.3,1.1-1.5,1.1-1.5,1.1h-7.4l0.6-2.7h7V11.5z M20,4.6c0,0,1.7,0,1.3,1.5
					c-0.3,1.1-1.5,1.1-1.5,1.1h-7.4L13,4.5L20,4.6L20,4.6z M21.8,19.2c2.5,0,6.7-1.5,6.7-5.4c0-2.9-2.1-4.5-2.1-4.5s3.8-1.5,3.8-4.7
					c0-4.5-4.8-4.5-4.8-4.5H6.3L2.1,19.2H21.8z"/>
				<g>
					<polygon class="st1" points="33.2,3.5 40.9,3.5 41.6,0.1 34,0.1 					"/>
					<polygon class="st1" points="37.7,19.3 40.5,5.2 32.9,5.2 29.8,19.3 					"/>
				</g>
				<path class="st1" d="M61.7,19.3l2.1-10c0-1.3-0.3-5.9-8.9-5.8C47,3.6,43.7,5.6,43,8.6h7.6c0.5-1.2,2.2-1.3,3.4-1.3
					c0.8,0,2.8,0,2.5,1.5c-0.4,1.8-13.7-1.3-15.4,5.4c-0.7,2.9,0.1,5.1,5.3,5.5c4.3,0.4,8.2-1.3,8.2-1.3v0.9H61.7z M50.1,15.7
					c-1.6,0-2.4-0.5-2.2-1.2c0.4-1.8,6-1.1,7.6-1.4C56.1,13.9,53.5,15.8,50.1,15.7z"/>
				<g>
					<path class="st1" d="M99.8,3.5c6.2-0.5,11.5,2.7,12,7.3h-8.1c-0.2-1.2-0.8-2-2-2.3C100,8,97.9,9.1,97.4,11s0.4,3.7,2.1,4.2
						s3.5-0.6,4-2.3h8.1c-0.8,3.8-5,7-10.4,7.5c-6.2,0.5-11.6-2.8-12-7.4C88.9,8.2,93.6,4,99.8,3.5z"/>
				</g>
				<g>
					<polygon class="st1" points="143.6,19.3 146.4,5.2 138.9,5.2 135.7,19.3 					"/>
				</g>
				<g>
					<path class="st1" d="M64.7,19.2h7.7l1.7-8.4c0.1-0.3,0.3-2.1,3-2.1c2.3,0,2.3,1.6,2.1,2.2c-0.1,0.5-1.7,8.3-1.7,8.3h8.1
						l1.7-8.4c1.2-4.3-0.8-7-5.5-7c-3,0-6.2,1.4-6.2,1.4l0.2-1.1h-7.7L64.7,19.2z"/>
				</g>
				<g>
					<path class="st1" d="M112.2,19.3h7.7l1.7-8.4c0.1-0.3,0.3-2.1,3-2.1c2.3,0,2.3,1.6,2.1,2.2c-0.1,0.5-1.7,8.3-1.7,8.3h8.1
						l1.7-8.4c1.2-4.3-0.8-7-5.5-7c-3,0-6.2,1.4-6.2,1.4l1-5.1h-7.7L112.2,19.3z"/>
				</g>
			</g>
			<polygon class="st1" points="139.3,3.4 147,3.4 147.7,0 140.1,0 			"/>
		</g>
	</g>
</g>
</svg>
